<svg id="Layer_1" data-name="Layer 1" xmlns="http://www.w3.org/2000/svg" width="748.53" height="83.21" viewBox="0 0 748.53 83.21"><defs><style>.cls-1,.cls-5{fill:none;stroke-miterlimit:10;stroke-width:2px;}.cls-1{stroke:#070001;}.cls-2{fill:#fff;}.cls-3{fill:#070001;}.cls-4{fill:#020f0f;}.cls-5{stroke:#fff;}</style></defs><title>image header</title><rect class="cls-1" x="399.03" y="12.03" width="173.66" height="67.09"/><path class="cls-2" d="M422.79,29.66H431a13.31,13.31,0,0,1,7.35,1.78,6.22,6.22,0,0,1,2.73,5.62,6.68,6.68,0,0,1-1.36,4.18,7.14,7.14,0,0,1-4,2.47V43.9A9.64,9.64,0,0,1,441,46.23a6.55,6.55,0,0,1,1.94,5,8.78,8.78,0,0,1-.81,3.88,7.52,7.52,0,0,1-2.29,2.77,10.28,10.28,0,0,1-3.56,1.66,18.12,18.12,0,0,1-4.67.56h-8.83V29.66Zm7.4,13.4q4.72,0,6.75-1.5A5.29,5.29,0,0,0,439,37a4.62,4.62,0,0,0-2.17-4.28,12.46,12.46,0,0,0-6.38-1.32h-5.5V43.07h5.27Zm0.88,15.3a13,13,0,0,0,7.19-1.71,6,6,0,0,0,2.61-5.41,5.36,5.36,0,0,0-2.54-4.88q-2.54-1.59-7.25-1.6h-6.15V58.37h6.15Z"/><path class="cls-2" d="M448.74,32.57a1.83,1.83,0,0,1-1.32-.51,1.71,1.71,0,0,1-.53-1.3,1.75,1.75,0,0,1,.53-1.36,2,2,0,0,1,2.63,0,1.75,1.75,0,0,1,.53,1.36,1.71,1.71,0,0,1-.53,1.3A1.84,1.84,0,0,1,448.74,32.57Zm-1.06,5.36h2V60.12h-2V37.93Z"/><path class="cls-2" d="M458,39.69h-3.47V38.12l3.51-.19,0.28-6.43h1.76v6.43h6.43v1.76h-6.43V54.16a10.34,10.34,0,0,0,.16,1.92,4,4,0,0,0,.58,1.48,2.76,2.76,0,0,0,1.13,1,4.31,4.31,0,0,0,1.87.35,5.39,5.39,0,0,0,1.41-.21,9.2,9.2,0,0,0,1.36-.49l0.56,1.66a15.54,15.54,0,0,1-1.94.6,7.43,7.43,0,0,1-1.66.23,6.46,6.46,0,0,1-2.68-.49,4.29,4.29,0,0,1-1.71-1.36,5.33,5.33,0,0,1-.9-2.13A13.56,13.56,0,0,1,458,54V39.69Z"/><path class="cls-2" d="M471.27,30h6.8v11.6h10.4V30h6.84V60.12h-6.84V47.55h-10.4V60.12h-6.8V30Z"/><path class="cls-2" d="M499.7,37.19h6.8V50.55a6,6,0,0,0,.69,3.42,2.53,2.53,0,0,0,2.17.92,3.75,3.75,0,0,0,2.17-.6,8.8,8.8,0,0,0,1.9-1.94V37.19h6.79V60.12h-5.55l-0.51-3.19H514a12.42,12.42,0,0,1-3.17,2.75,7.81,7.81,0,0,1-4,1q-3.75,0-5.43-2.45a11.84,11.84,0,0,1-1.69-6.79V37.19Z"/><path class="cls-2" d="M524.53,27.72h6.8v8l-0.19,3.51A10.71,10.71,0,0,1,534,37.31a7.92,7.92,0,0,1,3.17-.67,8.1,8.1,0,0,1,6.59,3.17,10.73,10.73,0,0,1,1.8,3.65,17.1,17.1,0,0,1,.62,4.78,15.91,15.91,0,0,1-.81,5.27,12.06,12.06,0,0,1-2.18,3.91,9.42,9.42,0,0,1-3.09,2.43,8.19,8.19,0,0,1-3.58.83,7.1,7.1,0,0,1-3.08-.74,9.33,9.33,0,0,1-2.89-2.22H530.4l-0.55,2.41h-5.32V27.72Zm6.8,25.93a5.48,5.48,0,0,0,1.85,1.16,5.42,5.42,0,0,0,1.8.32,3.71,3.71,0,0,0,3-1.59q1.25-1.6,1.25-5.15,0-6.19-4-6.19a5.37,5.37,0,0,0-3.93,2.08v9.38Z"/><g id="tPTp0d"><path class="cls-3" d="M602.71,59.61c0-1.28,0-2.53,0-3.78,0-1.82,0-3.64.06-5.46a0.29,0.29,0,0,0-.17-0.31,19.89,19.89,0,0,1-4.74-3.83,26.38,26.38,0,0,1-4.44-5.78,26.29,26.29,0,0,1-.7-24.51A24.19,24.19,0,0,1,606.38,3.52a23,23,0,0,1,6.55-1.32,23.41,23.41,0,0,1,16.27,5,24.88,24.88,0,0,1,9.27,14.65,26.36,26.36,0,0,1,.57,7.4,25.37,25.37,0,0,1-7,16.26,30.6,30.6,0,0,1-3.63,3.47,13.05,13.05,0,0,1-1.73,1.12,0.47,0.47,0,0,0-.28.49c0,0.84,0,1.69,0,2.53a0.27,0.27,0,0,1-.24.32l-2.88.74c0-.44,0-0.85,0-1.26q0-2.16,0-4.33a0.28,0.28,0,0,1,.18-0.34,15.33,15.33,0,0,0,5.67-4.11,24.85,24.85,0,0,0,4.49-6.18,22.58,22.58,0,0,0,2.31-8.15,22.75,22.75,0,0,0-4.53-16.08,21,21,0,0,0-31.5-2.4,21.74,21.74,0,0,0-6.38,12.25,22.52,22.52,0,0,0,4.39,18,28.69,28.69,0,0,0,4.88,5,11,11,0,0,0,2.82,1.53,0.43,0.43,0,0,1,.33.48c0,3.17-.05,6.35-0.08,9.52,0,0.7,0,.7-0.69.88Z"/><path class="cls-3" d="M642.56,65.44l1.63-3.07q2.35-4.42,4.7-8.83a0.41,0.41,0,0,1,.43-0.27q2.1,0,4.19,0c0.27,0,.28.09,0.25,0.31q-1.09,6.1-2.17,12.21-0.32,1.8-.62,3.6a0.29,0.29,0,0,1-.35.3c-0.92,0-1.84,0-2.76,0-0.21,0-.29,0-0.25-0.27q0.9-5,1.79-10.09a4.16,4.16,0,0,0,.09-0.9l-0.44.83q-2.73,5.08-5.45,10.16a0.43,0.43,0,0,1-.45.27c-0.91,0-1.82,0-2.73,0a0.29,0.29,0,0,1-.36-0.29c-0.51-2.87-1-5.74-1.57-8.61-0.15-.82-0.29-1.65-0.5-2.48-0.08.45-.17,0.9-0.25,1.35l-1.59,9-0.07.39c-0.12.65-.12,0.65-0.77,0.65s-1.55,0-2.33,0c-0.29,0-.35-0.06-0.3-0.34,0.24-1.3.47-2.61,0.7-3.92l1.16-6.6q0.47-2.66.94-5.32a0.24,0.24,0,0,1,.28-0.23c1.42,0,2.84,0,4.26,0a0.25,0.25,0,0,1,.29.27l0.89,4.69Z"/><path class="cls-3" d="M641.27,48.71c-1.63,0-3,0-4.34,0-0.27,0-.31-0.08-0.27-0.32,0.45-2.48.89-5,1.33-7.44a1.16,1.16,0,0,1,.13-0.34,27,27,0,0,0,2.78-8.08,0.24,0.24,0,0,1,.3-0.24c2,0,3.91,0,5.86,0a9.47,9.47,0,0,1,2.59.34A4.62,4.62,0,0,1,653,36.55a12.44,12.44,0,0,1-.63,6.18,9.33,9.33,0,0,1-2.54,4.18,6.74,6.74,0,0,1-4.11,1.72C644.17,48.75,642.59,48.7,641.27,48.71Zm3.52-13.48c-0.74,0-1.34,0-1.93,0a0.38,0.38,0,0,0-.47.4c-0.13.85-.3,1.7-0.45,2.55-0.44,2.48-.87,5-1.31,7.45,0,0.2,0,.2.18,0.2,1.35,0,2.71.07,4.06-.05a3.87,3.87,0,0,0,3.29-2,9.88,9.88,0,0,0,1.16-6.15A2.38,2.38,0,0,0,647,35.29C646.2,35.19,645.43,35.27,644.79,35.24Z"/><path class="cls-2" d="M615.11,45q0-5.43,0-10.86c0-.42,0-0.41.42-0.4l4.79,0.08c0.11,0,.16,0,0.16-0.13s0-.16,0-0.23q0-7,0-14c0-.3-0.06-0.38-0.37-0.38h-10c-0.27,0-.35-0.05-0.35-0.34,0-1.8,0-3.6,0-5.39a0.45,0.45,0,0,0-.29-0.48,1.86,1.86,0,0,1-1-2.18,1.94,1.94,0,1,1,2.7,2.21,0.36,0.36,0,0,0-.24.4c0,1.4,0,2.8,0,4.2,0,0.27.06,0.35,0.34,0.35h10c0.31,0,.38.08,0.38,0.38,0,5.06,0,10.12,0,15.18,0,0.29.05,0.39,0.37,0.39,2.23,0,4.46.05,6.69,0.09,0.19,0,.25,0,0.25-0.24q0-2.66,0-5.33a0.28,0.28,0,0,0-.21-0.28,1.87,1.87,0,0,1-1.07-2.14,2,2,0,0,1,1.87-1.56,1.93,1.93,0,0,1,.87,3.69,0.39,0.39,0,0,0-.25.43c0,2.11,0,4.22,0,6.33,0,0.28-.07.35-0.35,0.34L618.71,35c-0.68,0-1.35,0-2,0-0.27,0-.36.06-0.35,0.34,0,1.34,0,2.69,0,4q0,5.28,0,10.56c0,0.27.05,0.36,0.34,0.36q1.21,0,2.43,0c0.27,0,.33-0.08.32-0.34q0-2.65,0-5.29a0.47,0.47,0,0,0-.23-0.46,1.93,1.93,0,0,1-.46-2.8,2,2,0,0,1,2.79-.3,2,2,0,0,1-.56,3.31,0.42,0.42,0,0,0-.32.48c0,2.09,0,4.17,0,6.26,0,0.28-.06.38-0.36,0.37-1.22,0-2.44,0-3.66,0-0.23,0-.3.05-0.3,0.29,0,1.3,0,2.6,0,3.9a0.3,0.3,0,0,1-.28.39,6.65,6.65,0,0,1-.93.2c0-.31,0-0.62,0-0.93Q615.11,50.16,615.11,45Z"/><path class="cls-3" d="M663,50c0.93,0,2.07.07,3.21-.06a1,1,0,0,0,1-1.07c0-.22-0.13-0.14-0.21-0.14-1,0-2.06,0-3.1,0a4.9,4.9,0,0,1-2.21-.5,3.86,3.86,0,0,1-2.12-3.45,8.24,8.24,0,0,1,2.1-6.18,6,6,0,0,1,4.43-1.95c2.1-.06,4.19,0,6.29,0,0.3,0,.22.18,0.19,0.32q-0.36,2.09-.74,4.18l-1.25,7a14.27,14.27,0,0,1-.41,1.74,3.69,3.69,0,0,1-3.28,2.64,14.38,14.38,0,0,1-2.05.12h-5.43c-0.26,0-.33-0.06-0.28-0.31,0.14-.7.27-1.41,0.38-2.12a0.22,0.22,0,0,1,.27-0.22H663Zm5.93-10.72c-0.9,0-1.77,0-2.63,0a2.81,2.81,0,0,0-2.53,1.38,6.17,6.17,0,0,0-.86,3.42,1.82,1.82,0,0,0,2,2c0.86,0.07,1.73,0,2.59,0a0.25,0.25,0,0,0,.31-0.26C668.1,43.63,668.5,41.45,668.89,39.24Z"/><path class="cls-3" d="M733.79,73.53h-3.36c-0.22,0-.27,0-0.22-0.27,0.14-.68.25-1.37,0.35-2.06a0.33,0.33,0,0,1,.4-0.33q3,0,6.09,0a1,1,0,0,0,1.19-.94c0.08-.26,0-0.26-0.22-0.26-0.88,0-1.75,0-2.63,0a6.65,6.65,0,0,1-2.1-.29,3.79,3.79,0,0,1-2.65-3.49A8.3,8.3,0,0,1,732.3,60a6,6,0,0,1,4.89-2.47c2.09,0,4.17,0,6.26,0,0.21,0,.25,0,0.22.26-0.51,2.85-1,5.71-1.52,8.56-0.26,1.43-.46,2.88-0.85,4.29a3.66,3.66,0,0,1-3.11,2.75,9.81,9.81,0,0,1-1.85.14h-2.53ZM737.17,67c0.51,0,.93,0,1.35,0a0.25,0.25,0,0,0,.32-0.26c0.17-1.07.38-2.13,0.57-3.2s0.37-2.07.54-3.1c0-.15.08-0.3-0.19-0.3-0.91,0-1.82,0-2.72.06A2.62,2.62,0,0,0,735,61.38a6,6,0,0,0-1,3.75A1.73,1.73,0,0,0,735.69,67,11.83,11.83,0,0,0,737.17,67Z"/><path class="cls-3" d="M645.91,10.87l-1.18,6.66h6.54a0.31,0.31,0,0,0,.38-0.31c0.35-2,.71-4.09,1.08-6.14,0-.1,0-0.22.18-0.22h3.31l-1,5.44-1.16,6.6c-0.24,1.38-.49,2.76-0.73,4.15a0.2,0.2,0,0,1-.24.2c-1,0-2,0-3,0-0.29,0-.2-0.17-0.18-0.3,0.21-1.18.42-2.35,0.63-3.53L651,20.68c0-.18,0-0.28-0.22-0.28h-6.36a0.24,0.24,0,0,0-.29.26c-0.37,2.12-.75,4.25-1.12,6.37a0.21,0.21,0,0,1-.26.21h-1.2a0.17,0.17,0,0,1-.21-0.21,27.48,27.48,0,0,0-.27-3.81c-0.1-.71-0.21-1.42-0.36-2.12a2.29,2.29,0,0,1,0-.92q0.79-4.54,1.6-9.08c0-.11,0-0.25.19-0.25h3.31Z"/><path class="cls-3" d="M662.94,27.24c-1.2,0-2.67,0-4.13-.06A2.8,2.8,0,0,1,656,24a4.38,4.38,0,0,1,2.56-3.93,6.24,6.24,0,0,1,2.63-.42c1.29,0,2.57,0,3.86,0a0.23,0.23,0,0,0,.29-0.26,3.92,3.92,0,0,0,0-.79,0.86,0.86,0,0,0-.74-0.75,5.19,5.19,0,0,0-1.16-.09H658c-0.22,0-.31,0-0.25-0.28,0.14-.69.24-1.39,0.37-2.09,0-.14,0-0.29.26-0.28,2.22,0,4.44,0,6.66,0a7.46,7.46,0,0,1,1.48.17,2.59,2.59,0,0,1,2.16,2.6,15.37,15.37,0,0,1-.36,3.16c-0.34,2-.7,3.92-1,5.88a0.28,0.28,0,0,1-.34.28h-4Zm-0.76-2.64h2.06c0.11,0,.23,0,0.26-0.15,0.1-.64.22-1.29,0.33-1.93,0-.14,0-0.22-0.16-0.22-1.3,0-2.6,0-3.89,0a1.31,1.31,0,0,0-1.4,1.24,0.71,0.71,0,0,0,.64,1A14.3,14.3,0,0,0,662.18,24.6Z"/><path class="cls-3" d="M660.66,69.67c-1.25,0-2.72,0-4.2-.06a2.81,2.81,0,0,1-2.79-2.17,4.44,4.44,0,0,1,3.49-5.23,11.83,11.83,0,0,1,1.85-.13c1.21,0,2.42,0,3.63,0a0.26,0.26,0,0,0,.32-0.3c0-.11,0-0.22,0-0.33a1,1,0,0,0-1.16-1.24c-1.23-.09-2.46,0-3.69,0h-2.6c-0.21,0-.24-0.07-0.21-0.25,0.13-.72.27-1.43,0.38-2.15a0.21,0.21,0,0,1,.25-0.22c2.25,0,4.51,0,6.76,0a6.06,6.06,0,0,1,1.67.24A2.49,2.49,0,0,1,666.23,60a9.91,9.91,0,0,1-.24,3c-0.36,2.08-.74,4.16-1.1,6.24a0.4,0.4,0,0,1-.48.43C663.24,69.65,662.07,69.67,660.66,69.67ZM659.77,67h2.06a0.22,0.22,0,0,0,.27-0.21c0.1-.62.22-1.24,0.33-1.86,0-.14,0-0.23-0.17-0.22-1.33,0-2.66,0-4,0A1.28,1.28,0,0,0,657,66.1a0.68,0.68,0,0,0,.69.85A16.88,16.88,0,0,0,659.77,67Z"/><path class="cls-3" d="M695,48.69h-3.66A4.78,4.78,0,0,1,690,48.5a2.65,2.65,0,0,1-2-2.65A4.63,4.63,0,0,1,689.78,42a4.43,4.43,0,0,1,2.57-.85c1.56-.1,3.13,0,4.69,0a0.28,0.28,0,0,0,.35-0.31c0-.24,0-0.49,0-0.73a0.88,0.88,0,0,0-.88-0.79,8.45,8.45,0,0,0-1.19-.07c-1.75,0-3.51,0-5.26,0-0.28,0-.36-0.06-0.3-0.34,0.14-.69.27-1.39,0.38-2.09a0.21,0.21,0,0,1,.25-0.22c2.38,0,4.77-.06,7.15.06a5.14,5.14,0,0,1,1.34.24,2.51,2.51,0,0,1,1.79,2.24,11.66,11.66,0,0,1-.3,3.23c-0.34,2-.69,3.92-1,5.88-0.08.46-.07,0.46-0.54,0.46H695Zm-0.18-4.92h-1.66a2.53,2.53,0,0,0-1.13.21,1.45,1.45,0,0,0-.67,1.48c0.08,0.4.31,0.55,1,.59,1.25,0.08,2.5,0,3.76,0a0.31,0.31,0,0,0,.38-0.32c0.09-.59.19-1.18,0.31-1.76,0-.2,0-0.24-0.2-0.24h-1.8Z"/><path class="cls-3" d="M682.15,61.72l3.14-2.49,2-1.55a0.48,0.48,0,0,1,.33-0.13h3.76l0.13,0-5.92,4.52c0.41,0,.74,0,1.07.07,1.78,0.29,2.47,1.17,2.34,3-0.09,1.24-.38,2.45-0.58,3.67a1.23,1.23,0,0,1-.18.75,1.4,1.4,0,0,1-.81,0h-2.1c-0.22,0-.3,0-0.25-0.29,0.2-1.15.46-2.3,0.58-3.47a3.33,3.33,0,0,0,0-.43,0.68,0.68,0,0,0-.53-0.68,5.19,5.19,0,0,0-1.48-.14c-0.57,0-1.13,0-1.7,0a0.31,0.31,0,0,0-.37.33c-0.25,1.48-.53,3-0.78,4.44a0.24,0.24,0,0,1-.3.24h-2.73c-0.2,0-.25,0-0.21-0.26,0.64-3.59,1.27-7.19,1.9-10.78,0.3-1.71.62-3.42,0.91-5.13a0.24,0.24,0,0,1,.3-0.24h2.73c0.21,0,.25,0,0.21.26-0.48,2.68-1,5.35-1.43,8A1.37,1.37,0,0,0,682.15,61.72Z"/><path class="cls-2" d="M611.7,48.63c0,2.75,0,5.5,0,8.26a0.33,0.33,0,0,1-.33.41,1.42,1.42,0,0,1-.84.15,1.49,1.49,0,0,1,0-.83q0-7.51,0-15c0-.29-0.06-0.39-0.37-0.39H599.87c-0.3,0-.39-0.06-0.39-0.38,0-4,0-8,0-12.05a0.53,0.53,0,0,0-.29-0.53,1.94,1.94,0,0,1,1.36-3.54,1.95,1.95,0,0,1,.4,3.75,0.33,0.33,0,0,0-.26.38q0,5.39,0,10.79c0,0.27.08,0.32,0.33,0.32q3.33,0,6.66,0c0.28,0,.35-0.07.35-0.34,0-3.77,0-7.55,0-11.32,0-.31.05-0.41,0.39-0.41,1.9,0,3.8,0,5.69,0,0.27,0,.33-0.08.32-0.33,0-.69,0-1.38,0-2.06a0.44,0.44,0,0,0-.3-0.47,1.84,1.84,0,0,1-1-2,1.88,1.88,0,0,1,1.67-1.61,1.91,1.91,0,0,1,2.11,1.34,1.88,1.88,0,0,1-1,2.3,0.42,0.42,0,0,0-.27.45c0,1.09,0,2.18,0,3.26,0,0.25-.06.34-0.33,0.34H609.6a0.28,0.28,0,0,0-.35.35q0,5.08,0,10.15c0,0.31.1,0.36,0.37,0.35,0.59,0,1.18,0,1.76,0,0.29,0,.31.11,0.31,0.34Q611.69,44.47,611.7,48.63Z"/><path class="cls-3" d="M721.6,27.24h-4c-0.22,0-.28,0-0.23-0.27,0.14-.68.26-1.37,0.36-2.06a0.31,0.31,0,0,1,.37-0.32h6.23a6.12,6.12,0,0,0,.83-0.06,1.23,1.23,0,0,0,.84-1.61,0.54,0.54,0,0,0-.5-0.27c-0.82-.07-1.64,0-2.46,0-0.63,0-1.26,0-1.89-.08a2.57,2.57,0,0,1-2.43-2.12,4.36,4.36,0,0,1,2.59-5,5.88,5.88,0,0,1,1.93-.3h6.73c0.27,0,.3.06,0.25,0.31-0.14.68-.25,1.37-0.36,2.06a0.28,0.28,0,0,1-.34.28h-6a4.76,4.76,0,0,0-.73.07,0.83,0.83,0,0,0-.6.43,1.84,1.84,0,0,0-.24.89,0.54,0.54,0,0,0,.52.61,7.51,7.51,0,0,0,1.33.07c1,0,2,0,2.93,0a2.49,2.49,0,0,1,2.65,2.88A5.16,5.16,0,0,1,728.08,26a3.46,3.46,0,0,1-2.38,1.17C724.25,27.31,722.79,27.21,721.6,27.24Z"/><path class="cls-3" d="M708.81,27.24c-1.5,0-2.74,0-4,0-0.29,0-.32-0.08-0.26-0.34,0.14-.66.27-1.32,0.35-2a0.31,0.31,0,0,1,.4-0.32h5.63a9.68,9.68,0,0,0,1.46-.07,0.79,0.79,0,0,0,.66-0.48,2.21,2.21,0,0,0,.18-0.77,0.53,0.53,0,0,0-.56-0.63c-0.77-.07-1.55,0-2.33,0a19.59,19.59,0,0,1-2-.07A2.65,2.65,0,0,1,705.8,20a4.48,4.48,0,0,1,2.1-4.33,4.89,4.89,0,0,1,2.43-.56c2.27,0,4.55,0,6.82,0,0.23,0,.27,0,0.22.28-0.14.69-.26,1.39-0.36,2.09a0.29,0.29,0,0,1-.37.28h-6a4.6,4.6,0,0,0-.73.07,0.82,0.82,0,0,0-.58.4,1.91,1.91,0,0,0-.26.88,0.55,0.55,0,0,0,.54.65,16.86,16.86,0,0,0,2.39.07,14,14,0,0,1,2.32.11,2.33,2.33,0,0,1,2.18,2.64A5.21,5.21,0,0,1,715.3,26a3.47,3.47,0,0,1-2.43,1.21C711.43,27.31,710,27.21,708.81,27.24Z"/><path class="cls-3" d="M687.61,27.24c0.32-1.84.64-3.64,1-5.45,0.14-.78.26-1.57,0.39-2.35a2.27,2.27,0,0,0,0-.83,1,1,0,0,0-1.14-.82c-0.93,0-1.86,0-2.8,0-0.22,0-.2.13-0.22,0.25q-0.32,1.78-.64,3.56-0.48,2.71-.94,5.42a0.27,0.27,0,0,1-.33.25c-0.89,0-1.78,0-2.66,0-0.25,0-.29-0.07-0.25-0.3q0.42-2.33.84-4.67,0.52-2.92,1-5.84a8.82,8.82,0,0,0,.18-1c0-.29.15-0.3,0.38-0.3h6a6.38,6.38,0,0,1,1.9.26,2.74,2.74,0,0,1,2,2.38,9.33,9.33,0,0,1-.24,3.13c-0.34,1.95-.69,3.9-1,5.84-0.08.49-.07,0.49-0.55,0.49h-2.77Z"/><path class="cls-3" d="M726.3,69.67c-0.44,0-.89,0-1.33,0-0.24,0-.3-0.06-0.26-0.29,0.19-1,.37-2.09.56-3.13,0.25-1.43.51-2.85,0.75-4.28a2.75,2.75,0,0,0,0-.76,1,1,0,0,0-1.09-1c-1-.09-1.91,0-2.86,0a0.2,0.2,0,0,0-.24.2q-0.66,3.81-1.33,7.61c-0.09.5-.18,1-0.26,1.5a0.2,0.2,0,0,1-.25.19h-2.83c-0.18,0-.2-0.07-0.17-0.22q0.68-3.82,1.36-7.64c0.23-1.32.47-2.63,0.69-4a0.31,0.31,0,0,1,.37-0.32c2,0,3.95,0,5.92,0a7,7,0,0,1,1.71.2,2.86,2.86,0,0,1,2.25,2.79,14.91,14.91,0,0,1-.37,3.29c-0.32,1.84-.65,3.68-1,5.52a0.3,0.3,0,0,1-.37.33C727.17,69.65,726.73,69.67,726.3,69.67Z"/><path class="cls-2" d="M626.53,60.15c0,1.11,0,2.2,0,3.29,0,0.21-.12.22-0.27,0.26l-6.61,1.76-17.49,4.64c-0.3.08-.33,0-0.33-0.26,0-1,0-1.91,0-2.86a0.36,0.36,0,0,1,.33-0.42L621,61.61l5.16-1.38Z"/><path class="cls-2" d="M626.54,54.56c0,1.11,0,2.21,0,3.31,0,0.23-.16.21-0.29,0.24l-6.52,1.73L602.2,64.5c-0.3.08-.38,0-0.37-0.28,0-.94,0-1.89,0-2.83a0.34,0.34,0,0,1,.3-0.41L620,56.29l6.36-1.68Z"/><path class="cls-2" d="M601.84,75.6c0-1.13,0-2.23,0-3.33,0-.23.14-0.23,0.29-0.27l5.94-1.56,18.08-4.77c0.38-.1.38-0.1,0.38,0.29,0,0.93,0,1.86,0,2.8a0.34,0.34,0,0,1-.31.4l-18.85,5Z"/><path class="cls-3" d="M697.4,19.79h6.78c-0.15.83-.29,1.64-0.43,2.45,0,0.22-.2.16-0.33,0.16-2.06,0-4.13,0-6.19,0-0.3,0-.39.07-0.38,0.38,0,1.2.62,1.78,2,1.8s2.8,0,4.19,0c0.26,0,.34,0,0.27.33-0.15.68-.25,1.37-0.36,2.06a0.26,0.26,0,0,1-.32.27c-1.51,0-3,0-4.53,0a5.46,5.46,0,0,1-2.57-.54,3.78,3.78,0,0,1-2-3.1,8.25,8.25,0,0,1,2.13-6.55,5.61,5.61,0,0,1,3.89-1.85c1.74-.16,3.48,0,5.22-0.07,0.2,0,.22.08,0.19,0.24-0.13.74-.27,1.48-0.39,2.22,0,0.21-.17.19-0.31,0.19-1.35,0-2.71,0-4.06,0A2.74,2.74,0,0,0,697.4,19.79Z"/><path class="cls-3" d="M701,62.19c-0.14.81-.29,1.58-0.41,2.36a0.29,0.29,0,0,1-.36.29c-2.06,0-4.13,0-6.19,0-0.3,0-.37.08-0.36,0.37a1.55,1.55,0,0,0,1.57,1.76c1.48,0.14,3,0,4.46.06,0.46,0,.46,0,0.38.44-0.11.64-.24,1.28-0.34,1.93a0.29,0.29,0,0,1-.36.29c-1.5,0-3,0-4.49,0a5.8,5.8,0,0,1-2.3-.41,3.68,3.68,0,0,1-2.2-3.1,8.16,8.16,0,0,1,2.31-6.87,5.48,5.48,0,0,1,3.61-1.64c1.77-.17,3.55,0,5.32-0.08,0.16,0,.21,0,0.17.2-0.14.72-.26,1.44-0.38,2.16a0.27,0.27,0,0,1-.32.27c-1.4,0-2.79,0-4.19,0a2.73,2.73,0,0,0-2.59,1.7c-0.09.22-.09,0.29,0.18,0.29H701Z"/><path class="cls-3" d="M681.68,39.23h-1.9c-0.2,0-.24,0-0.19-0.24,0.14-.7.26-1.41,0.37-2.12a0.28,0.28,0,0,1,.34-0.28c0.52,0,1,0,1.56,0a0.28,0.28,0,0,0,.34-0.28c0.2-1.19.42-2.37,0.61-3.56a0.43,0.43,0,0,1,.54-0.45c0.82,0,1.64,0,2.46,0,0.24,0,.34,0,0.28.31-0.24,1.22-.44,2.46-0.66,3.69,0,0.22,0,.29.24,0.28,0.88,0,1.75,0,2.63,0,0.23,0,.29.07,0.24,0.28-0.14.71-.27,1.41-0.38,2.12a0.23,0.23,0,0,1-.29.25H685.2a0.27,0.27,0,0,0-.33.28c-0.29,1.7-.6,3.4-0.9,5.1,0,0.15,0,.31-0.05.46a0.72,0.72,0,0,0,.77,1,16.51,16.51,0,0,0,1.89,0c0.21,0,.34,0,0.28.28-0.14.72-.27,1.43-0.39,2.15,0,0.13,0,.2-0.2.19-1.2,0-2.4.08-3.59-.07a2.24,2.24,0,0,1-2.1-2.35,16.42,16.42,0,0,1,.38-3.06C681.19,41.9,681.44,40.58,681.68,39.23Z"/><path class="cls-3" d="M707.47,69.67a9.65,9.65,0,0,1-2.24-.15,2.3,2.3,0,0,1-1.78-2.71c0.08-1.27.38-2.51,0.59-3.77,0.15-.89.31-1.79,0.48-2.68,0-.19-0.05-0.2-0.2-0.2h-1.63c-0.19,0-.3,0-0.24-0.26,0.15-.69.25-1.39,0.36-2.09a0.27,0.27,0,0,1,.34-0.27c0.51,0,1,0,1.53,0a0.31,0.31,0,0,0,.38-0.31c0.21-1.25.44-2.5,0.65-3.76a0.21,0.21,0,0,1,.25-0.22h2.83c0.18,0,.2.06,0.17,0.22-0.23,1.27-.45,2.55-0.69,3.82,0,0.22,0,.26.22,0.25,0.88,0,1.75,0,2.63,0,0.23,0,.31,0,0.26.28-0.14.69-.26,1.39-0.37,2.09a0.26,0.26,0,0,1-.32.26c-0.89,0-1.78,0-2.66,0a0.27,0.27,0,0,0-.32.28c-0.3,1.72-.6,3.44-0.9,5.16,0,0.1,0,.2,0,0.3-0.07.84,0.14,1.08,1,1.11,0.58,0,1.15,0,1.73,0,0.18,0,.23,0,0.2.23-0.14.76-.28,1.52-0.4,2.29,0,0.17-.13.15-0.24,0.15h-1.6Z"/><path class="cls-3" d="M674.6,15.13a22.94,22.94,0,0,1,3.24.13,2.46,2.46,0,0,1,2.23,1.83,5.67,5.67,0,0,1,0,2c-0.07.51-.18,1-0.25,1.54a0.29,0.29,0,0,1-.36.3c-0.85,0-1.71,0-2.56,0-0.17,0-.26,0-0.21-0.23,0.11-.52.17-1,0.24-1.57a0.94,0.94,0,0,0-1-1.22c-0.31,0-.62,0-0.93,0a0.27,0.27,0,0,0-.33.28c-0.23,1.31-.46,2.61-0.69,3.92q-0.44,2.5-.87,5a0.22,0.22,0,0,1-.26.22c-0.93,0-1.86,0-2.8,0-0.24,0-.21-0.12-0.19-0.26l0.75-4.24q0.62-3.51,1.24-7c0.1-.59.09-0.59,0.7-0.59h2.07Z"/><path class="cls-3" d="M672.27,57.55a20.15,20.15,0,0,1,3.21.13A2.39,2.39,0,0,1,677.71,60a8.77,8.77,0,0,1-.12,1.72c-0.06.46-.17,0.91-0.24,1.37a0.21,0.21,0,0,1-.25.21c-0.89,0-1.78,0-2.66,0-0.22,0-.23-0.08-0.2-0.26a9.31,9.31,0,0,0,.25-1.77,0.83,0.83,0,0,0-.83-1,8.7,8.7,0,0,0-1.19-.06,0.21,0.21,0,0,0-.24.21l-0.88,5c-0.23,1.31-.46,2.61-0.68,3.92a0.31,0.31,0,0,1-.37.32c-0.89,0-1.78,0-2.66,0-0.17,0-.27,0-0.22-0.24,0.41-2.24.8-4.48,1.19-6.72,0.28-1.58.56-3.16,0.82-4.74a0.41,0.41,0,0,1,.51-0.43C670.67,57.58,671.4,57.55,672.27,57.55Z"/><path class="cls-3" d="M701.8,48.69c0.32-1.83.64-3.64,1-5.44q0.55-3.12,1.11-6.23c0.27-1.5.54-3,.79-4.5a0.19,0.19,0,0,1,.23-0.2h2.83c0.19,0,.21.06,0.18,0.23q-1.09,6.17-2.18,12.34c-0.21,1.21-.44,2.41-0.65,3.62,0,0.1,0,.19-0.16.19h-3.1Z"/><path class="cls-2" d="M614.86,77.6c-1.74,0-3.48,0-5.22,0-0.27,0-.33-0.08-0.32-0.33,0-.5,0-1,0-1.5a0.29,0.29,0,0,1,.25-0.34l10.56-2.78c0.24-.06.25,0,0.25,0.21,0,1.49,0,3,0,4.46,0,0.24-.08.29-0.3,0.29h-5.22Z"/><path class="cls-3" d="M653.4,48.69c0.18-1,.36-2,0.53-3.06l1.17-6.6c0.13-.75.27-1.5,0.39-2.25a0.19,0.19,0,0,1,.23-0.2h2.83c0.2,0,.2.08,0.17,0.24q-1,5.78-2,11.56a0.29,0.29,0,0,1-.34.31C655.38,48.68,654.4,48.69,653.4,48.69Z"/><path class="cls-3" d="M712.63,69.67c-0.45,0-.91,0-1.36,0-0.2,0-.25-0.06-0.21-0.24q0.32-1.75.62-3.49l1.17-6.63c0.09-.52.19-1,0.27-1.57a0.2,0.2,0,0,1,.24-0.19c0.94,0,1.89,0,2.83,0,0.22,0,.2.1,0.18,0.24l-0.69,3.88-1.23,7a3.22,3.22,0,0,0-.1.62c0,0.41-.21.45-0.54,0.43S713,69.67,712.63,69.67Z"/><path class="cls-3" d="M673.16,48.69c0.44-2.48.88-4.93,1.31-7.37,0.26-1.45.51-2.9,0.75-4.35a0.37,0.37,0,0,1,.45-0.39c0.81,0,1.62,0,2.43,0,0.44,0,.44,0,0.36.43q-0.5,2.79-1,5.58t-1.05,5.88c0,0.1,0,.22-0.16.22h-3.11Z"/><path class="cls-2" d="M716.19,75.8c-0.18.32-.37,0.64-0.54,1a0.48,0.48,0,0,1-.46.34,0.5,0.5,0,0,1-.48-0.36l-0.59-1.06v1.86c0,0.57,0,.57-0.58.57s-0.43.07-.43-0.45c0-1.13,0-2.26,0-3.39,0-.24.08-0.27,0.3-0.3a1,1,0,0,1,1.16.68,10.19,10.19,0,0,0,.64,1.16c0.31-.55.62-1.06,0.9-1.59a0.4,0.4,0,0,1,.41-0.24c0.77,0,.77,0,0.77.78,0,1,0,2,0,3,0,0.23,0,.33-0.3.33-0.73,0-.73,0-0.73-0.73V75.82Z"/><path class="cls-2" d="M680.64,75.82c0.31-.54.61-1,0.88-1.56A0.44,0.44,0,0,1,682,74c0.73,0,.73,0,0.73.73,0,1,0,2.06,0,3.1,0,0.24-.05.32-0.31,0.32-0.72,0-.72,0-0.72-0.7V75.83l0,0c-0.2.35-.4,0.69-0.58,1a0.48,0.48,0,0,1-.87,0c-0.18-.36-0.39-0.71-0.64-1.15,0,0.76,0,1.43,0,2.1,0,0.25-.05.34-0.32,0.33-0.69,0-.69,0-0.69-0.7,0-1.05,0-2.11,0-3.16,0-.21,0-0.28.27-0.28a0.93,0.93,0,0,1,1.19.68Z"/><path class="cls-2" d="M687.55,76c0-.6,0-1.2,0-1.8a0.21,0.21,0,0,1,.26-0.26c0.52,0,1,0,1.56,0a2.06,2.06,0,1,1,.05,4.13c-0.54,0-1.09,0-1.63,0a0.2,0.2,0,0,1-.25-0.25C687.56,77.27,687.55,76.66,687.55,76Zm1,0v0.3c0,0.95.09,1,1,.81a1,1,0,0,0,.88-1.11,1.12,1.12,0,0,0-1.23-1.11c-0.7,0-.7,0-0.7.68V76Z"/><path class="cls-2" d="M656.55,76a2.18,2.18,0,1,1,2.07,2.18A2.09,2.09,0,0,1,656.55,76Zm1,0a1.17,1.17,0,1,0,2.34.07,1.13,1.13,0,0,0-1.12-1.23A1.11,1.11,0,0,0,657.56,76Z"/><path class="cls-2" d="M645.38,76.07a2.07,2.07,0,0,1-2.18,2.12A2.15,2.15,0,1,1,645.38,76.07ZM642,76a1.14,1.14,0,0,0,1.17,1.22,1.16,1.16,0,0,0,1.17-1.2,1.13,1.13,0,0,0-1.15-1.2A1.11,1.11,0,0,0,642,76Z"/><path class="cls-3" d="M657.34,35.57H656c-0.16,0-.26,0-0.21-0.23,0.18-.94.33-1.89,0.49-2.84a0.2,0.2,0,0,1,.25-0.19h2.79c0.17,0,.24,0,0.21.22-0.17.94-.35,1.89-0.51,2.84a0.21,0.21,0,0,1-.26.21h-1.4Z"/><path class="cls-3" d="M677.65,32.32h1.43c0.16,0,.21,0,0.18.21-0.18.94-.35,1.89-0.51,2.83a0.21,0.21,0,0,1-.25.22h-2.82c-0.17,0-.21,0-0.18-0.21,0.18-1,.35-1.91.51-2.87a0.19,0.19,0,0,1,.24-0.18h1.4Z"/><path class="cls-3" d="M714.95,56.51c-0.46,0-.91,0-1.36,0-0.19,0-.23-0.07-0.2-0.23q0.25-1.4.5-2.81a0.2,0.2,0,0,1,.23-0.21h2.83c0.16,0,.21,0,0.18.21-0.17.95-.33,1.9-0.49,2.84a0.21,0.21,0,0,1-.25.19C715.9,56.5,715.42,56.51,714.95,56.51Z"/><path class="cls-2" d="M683.64,76c0-.59,0-1.18,0-1.76,0-.22.07-0.28,0.28-0.28,0.82,0,1.64,0,2.46,0,0.2,0,.29,0,0.29.27,0,0.67,0,.67-0.65.67h-1.16c-0.33,0-.19.23-0.2,0.38s-0.06.32,0.21,0.31,0.71,0,1.06,0c0.17,0,.22,0,0.23.22,0,0.64,0,.64-0.61.64a4,4,0,0,1-.53,0c-0.3,0-.37.07-0.37,0.36s0.09,0.4.39,0.38c0.46,0,.93,0,1.4,0,0.2,0,.27,0,0.27.25,0,0.68,0,.68-0.67.68s-1.35,0-2,0c-0.31,0-.37-0.09-0.36-0.37C683.65,77.18,683.64,76.6,683.64,76Z"/><path class="cls-2" d="M670.27,74c0.58,0,.58,0,0.79.53,0.43,1.1.85,2.21,1.29,3.31,0.09,0.23.06,0.32-.2,0.29a0.8,0.8,0,0,0-.23,0,0.53,0.53,0,0,1-.72-0.48,0.25,0.25,0,0,0-.31-0.21c-0.4,0-.8,0-1.2,0a0.29,0.29,0,0,0-.35.26,0.49,0.49,0,0,1-.62.44c-0.61,0-.61,0-0.39-0.56l1.18-3C669.7,74,669.69,74,670.27,74Zm-0.5,2.53h0.84c0.12,0,.16,0,0.12-0.16l-0.47-1.27-0.45,1.24S669.79,76.44,669.77,76.52Z"/><path class="cls-2" d="M720.11,74c0.58,0,.58,0,0.79.54,0.42,1.09.84,2.19,1.28,3.28,0.1,0.24.08,0.35-.21,0.31a0.67,0.67,0,0,0-.2,0,0.54,0.54,0,0,1-.74-0.5,0.24,0.24,0,0,0-.3-0.19c-0.41,0-.82,0-1.23,0a0.27,0.27,0,0,0-.32.24,0.5,0.5,0,0,1-.65.45c-0.58,0-.58,0-0.37-0.56l1.17-3C719.54,74,719.54,74,720.11,74Zm0,1.11-0.26.68c-0.3.82-.29,0.82,0.59,0.74,0.14,0,.17-0.05.13-0.18Z"/><path class="cls-2" d="M697.65,78.12c-0.34.11-.54-0.07-0.6-0.46a0.27,0.27,0,0,0-.34-0.23c-0.39,0-.78,0-1.16,0a0.3,0.3,0,0,0-.38.27,0.49,0.49,0,0,1-.63.43c-0.59,0-.59,0-0.37-0.57,0.43-1.1.86-2.21,1.28-3.32a0.34,0.34,0,0,1,.38-0.26c0.87,0,.87,0,1.18.79l1.15,3c0.14,0.37.14,0.37-.24,0.37h-0.26Zm-2.06-1.6h0.86c0.12,0,.17,0,0.12-0.16l-0.47-1.27Z"/><path class="cls-2" d="M637.4,76.05c0-.6,0-1.2,0-1.8,0-.2,0-0.27.25-0.27,0.84,0,1.69,0,2.53,0a0.2,0.2,0,0,1,.25.25c0,0.69,0,.69-0.67.69-0.38,0-.76,0-1.13,0s-0.22.2-.23,0.36-0.07.35,0.22,0.33,0.71,0,1.07,0a0.19,0.19,0,0,1,.23.22c0,0.63,0,.63-0.62.63a3.68,3.68,0,0,1-.5,0c-0.32,0-.42.06-0.41,0.39s0.07,0.36.35,0.35c0.49,0,1,0,1.46,0,0.18,0,.25,0,0.25.23,0,0.7,0,.7-0.68.7s-1.35,0-2,0c-0.27,0-.37-0.05-0.36-0.34C637.42,77.21,637.4,76.63,637.4,76.05Z"/><path class="cls-2" d="M705.53,76c0-.6,0-1.2,0-1.8a0.21,0.21,0,0,1,.26-0.26h2.53a0.19,0.19,0,0,1,.24.22c0,0.72,0,.72-0.67.72-0.38,0-.75,0-1.13,0s-0.22.21-.22,0.36-0.06.34,0.22,0.33,0.69,0,1,0a0.19,0.19,0,0,1,.24.21c0,0.64,0,.64-0.61.64a4.58,4.58,0,0,1-.6,0c-0.33,0-.29.17-0.29,0.37s0,0.39.29,0.37c0.51,0,1,0,1.53,0,0.19,0,.24.06,0.24,0.24,0,0.69,0,.69-0.69.69s-1.4,0-2.1,0a0.22,0.22,0,0,1-.28-0.28C705.54,77.24,705.53,76.64,705.53,76Z"/><path class="cls-2" d="M635,78.2a1.71,1.71,0,0,1-1.67-.86c-0.1-.19-0.09-0.31.15-0.34l0.26-.07a0.45,0.45,0,0,1,.64.15,0.94,0.94,0,0,0,1.05.14,0.32,0.32,0,0,0,.17-0.33,0.32,0.32,0,0,0-.27-0.29c-0.37-.1-0.76-0.16-1.12-0.29a1.17,1.17,0,0,1-.81-1.47,1.06,1.06,0,0,1,.46-0.67,2.23,2.23,0,0,1,2.24.05,0.8,0.8,0,0,1,.46.71,1.21,1.21,0,0,1-.8.28,0.13,0.13,0,0,1-.15-0.09,0.78,0.78,0,0,0-.88-0.32,0.33,0.33,0,0,0-.32.28,0.33,0.33,0,0,0,.22.37,4.25,4.25,0,0,0,.87.22,1.24,1.24,0,0,1,1.12,1.57,1.08,1.08,0,0,1-.71.81A2.23,2.23,0,0,1,635,78.2Z"/><path class="cls-2" d="M654.34,78.2a1.77,1.77,0,0,1-1.62-.72c-0.22-.35-0.2-0.39.19-0.5l0.32-.09a0.3,0.3,0,0,1,.41.14,1,1,0,0,0,1.09.21,0.33,0.33,0,0,0,.19-0.32,0.29,0.29,0,0,0-.2-0.28c-0.2-.06-0.41-0.1-0.61-0.16a5.3,5.3,0,0,1-.64-0.18,1.21,1.21,0,0,1,.16-2.32A2.36,2.36,0,0,1,655,74a1.65,1.65,0,0,1,.41.22,0.79,0.79,0,0,1,.45.71,1.29,1.29,0,0,1-.81.27,0.14,0.14,0,0,1-.15-0.1,0.77,0.77,0,0,0-.85-0.32,0.34,0.34,0,0,0-.35.3,0.32,0.32,0,0,0,.26.37c0.35,0.1.71,0.16,1.06,0.27a1.17,1.17,0,0,1,.89,1.45,1.11,1.11,0,0,1-.88.93A2,2,0,0,1,654.34,78.2Z"/><path class="cls-2" d="M665.63,75.1c-0.15,0-.29.07-0.41,0.11a0.76,0.76,0,0,1-.91-0.15,1.06,1.06,0,0,0-1.53.22A1.36,1.36,0,0,0,663,77a1.12,1.12,0,0,0,1.54-.22,0.3,0.3,0,0,1,.39-0.14l0.22,0.06c0.57,0.15.59,0.21,0.21,0.68a2.23,2.23,0,0,1-2.78.51,2.2,2.2,0,0,1-.95-2.6,2.1,2.1,0,0,1,2.26-1.42A2,2,0,0,1,665.63,75.1Z"/><path class="cls-2" d="M673.12,76c0-.6,0-1.2,0-1.79a0.2,0.2,0,0,1,.24-0.25c0.79,0,.79,0,0.79.76s0,1.46,0,2.19c0,0.18,0,.25.24,0.25h1.36a0.2,0.2,0,0,1,.25.24c0,0.7,0,.7-0.66.7s-1.29,0-1.93,0c-0.24,0-.3-0.08-0.29-0.3C673.13,77.22,673.12,76.62,673.12,76Z"/><path class="cls-2" d="M725.91,75.59c0,0.42,0,.84,0,1.26s0.09,0.35.36,0.34c0.42,0,.84,0,1.26,0a0.2,0.2,0,0,1,.24.24c0,0.7,0,.7-0.69.7h-1.93a0.2,0.2,0,0,1-.25-0.25q0-1.83,0-3.66a0.19,0.19,0,0,1,.22-0.23c0.78,0,.78,0,0.78.74v0.87Z"/><path class="cls-2" d="M649.39,76.24c0,0.87,0,1.75,0,2.62a0.21,0.21,0,0,1-.26.26c-0.63,0-.63,0-0.63-0.62,0-1.62,0-3.23,0-4.85,0-.25.06-0.32,0.31-0.31,0.58,0,.58,0,0.58.57Q649.39,75.07,649.39,76.24Z"/><path class="cls-2" d="M702.2,76.23c0,0.87,0,1.75,0,2.62a0.21,0.21,0,0,1-.26.27c-0.63,0-.63,0-0.63-0.62,0-1.61,0-3.21,0-4.82,0-.27.06-0.36,0.34-0.35,0.55,0,.55,0,0.55.57Q702.2,75.07,702.2,76.23Z"/><path class="cls-2" d="M693.27,76.1c0,0.59,0,1.18,0,1.76a0.21,0.21,0,0,1-.26.26c-0.75,0-.74,0-0.74-0.74,0-1,0-2.08,0-3.13a0.22,0.22,0,0,1,.28-0.28c0.73,0,.73,0,0.73.72v1.4Z"/><path class="cls-2" d="M724,76.09c0,0.59,0,1.18,0,1.76,0,0.23-.07.27-0.28,0.27-0.72,0-.72,0-0.72-0.73,0-1,0-2.06,0-3.09,0-.23,0-0.33.3-0.32,0.71,0,.71,0,0.71.71v1.4Z"/><path class="cls-2" d="M667.43,76.06c0,0.61,0,1.22,0,1.83a0.19,0.19,0,0,1-.22.23c-0.8,0-.79,0-0.79-0.75,0-1,0-2.06,0-3.09,0-.23.05-0.3,0.29-0.3,0.72,0,.72,0,0.72.72v1.36Z"/><path class="cls-2" d="M710.81,76.86c-0.31,0-.62,0-0.93,0s-0.29,0-.29-0.27c0-.55,0-0.55.54-0.55s1.08,0,1.63,0c0.19,0,.27,0,0.27.25,0,0.56,0,.56-0.55.56h-0.66Z"/></g><path class="cls-4" d="M10.73,25.57L4.86,13H9.57l1.73,4.47q0.42,1.1.79,2.13l0.79,2.16H13q0.42-1.13.82-2.16t0.82-2.13L16.4,13H21L15.12,25.57v6.92H10.73V25.57Z"/><path class="cls-4" d="M30.41,32.84a9,9,0,0,1-3.59-.7,7.81,7.81,0,0,1-2.79-2,9.24,9.24,0,0,1-1.8-3.19,13.15,13.15,0,0,1-.64-4.26,13,13,0,0,1,.64-4.25A8.78,8.78,0,0,1,24,15.3a7.76,7.76,0,0,1,2.79-1.94,10,10,0,0,1,7.19,0,7.67,7.67,0,0,1,2.79,2,8.94,8.94,0,0,1,1.8,3.15,12.93,12.93,0,0,1,.64,4.22,13.16,13.16,0,0,1-.64,4.26,9.24,9.24,0,0,1-1.8,3.19,7.82,7.82,0,0,1-2.79,2A9,9,0,0,1,30.41,32.84Zm0-3.79a3.63,3.63,0,0,0,3.16-1.72,8.2,8.2,0,0,0,1.16-4.67,7.78,7.78,0,0,0-1.16-4.56,3.86,3.86,0,0,0-6.32,0,7.78,7.78,0,0,0-1.16,4.56,8.2,8.2,0,0,0,1.16,4.67A3.63,3.63,0,0,0,30.41,29.06Z"/><path class="cls-4" d="M42.78,13H47.2V23.93a6.82,6.82,0,0,0,.86,4,3,3,0,0,0,2.5,1.13,3,3,0,0,0,2.53-1.13,6.64,6.64,0,0,0,.89-4V13h4.23V23.48q0,4.89-2,7.13a7.17,7.17,0,0,1-5.71,2.24,7.35,7.35,0,0,1-5.78-2.24q-2-2.24-2-7.13V13Z"/><path class="cls-4" d="M73.25,32.48l-3.73-7H67.11v7H62.73V13h7a13.54,13.54,0,0,1,2.91.3,6.61,6.61,0,0,1,2.37,1,5,5,0,0,1,1.61,1.86,6.29,6.29,0,0,1,.6,2.89,6.17,6.17,0,0,1-.94,3.53,5.72,5.72,0,0,1-2.52,2.07l4.41,7.78H73.25ZM67.11,22h2.27A4.13,4.13,0,0,0,72,21.26a2.61,2.61,0,0,0,.91-2.16,2.16,2.16,0,0,0-.91-2,5,5,0,0,0-2.64-.57H67.11V22Z"/><path class="cls-4" d="M87.3,13h6.65a16.59,16.59,0,0,1,2.82.22,6.72,6.72,0,0,1,2.27.79,4.21,4.21,0,0,1,1.52,1.49,4.48,4.48,0,0,1,.55,2.33,4.62,4.62,0,0,1-.19,1.31,4.34,4.34,0,0,1-.58,1.22,4.09,4.09,0,0,1-1,1,4.25,4.25,0,0,1-1.46.66V22.2A5.66,5.66,0,0,1,101,23.69a4.26,4.26,0,0,1,1.06,3.07,5.31,5.31,0,0,1-.58,2.56,5,5,0,0,1-1.61,1.77,7.42,7.42,0,0,1-2.4,1,12.16,12.16,0,0,1-3,.34H87.3V13Zm6.44,7.84a3.5,3.5,0,0,0,2.34-.64,2.2,2.2,0,0,0,.73-1.74,1.73,1.73,0,0,0-.75-1.58,4.34,4.34,0,0,0-2.3-.48H91.68v4.44h2.06Zm0.42,8.2q3.61,0,3.61-2.65a2.06,2.06,0,0,0-.89-1.86A5,5,0,0,0,94.15,24H91.68v5.1h2.47Z"/><path class="cls-4" d="M115.86,32.48l-3.73-7h-2.41v7h-4.38V13h7a13.54,13.54,0,0,1,2.91.3,6.61,6.61,0,0,1,2.37,1,5,5,0,0,1,1.61,1.86,6.29,6.29,0,0,1,.6,2.89,6.17,6.17,0,0,1-.94,3.53,5.72,5.72,0,0,1-2.52,2.07l4.41,7.78h-4.92ZM109.72,22H112a4.13,4.13,0,0,0,2.64-.73,2.61,2.61,0,0,0,.91-2.16,2.16,2.16,0,0,0-.91-2,5,5,0,0,0-2.64-.57h-2.27V22Z"/><path class="cls-4" d="M132.52,27.86h-5.93l-1.19,4.62h-4.47L127,13h5.28l6.08,19.44h-4.65Zm-0.89-3.43-0.45-1.79q-0.42-1.46-.8-3.1t-0.78-3.16h-0.12l-0.73,3.17q-0.37,1.63-.79,3.09l-0.48,1.79h4.14Z"/><path class="cls-4" d="M140.49,13H145l5.07,9.66L152,27h0.12q-0.15-1.55-.34-3.46a36,36,0,0,1-.19-3.64V13h4.17V32.48h-4.5l-5.07-9.69-1.91-4.23h-0.12q0.15,1.61.34,3.46a34.39,34.39,0,0,1,.19,3.58v6.89h-4.17V13Z"/><path class="cls-4" d="M160.31,13h5.49a13.31,13.31,0,0,1,4,.57,8.07,8.07,0,0,1,3.07,1.74,7.66,7.66,0,0,1,2,3,12.26,12.26,0,0,1,.69,4.32,12.51,12.51,0,0,1-.69,4.35,8.07,8.07,0,0,1-1.94,3.06,8,8,0,0,1-3,1.8,12,12,0,0,1-3.89.6h-5.72V13Zm5.22,15.89a7.32,7.32,0,0,0,2.27-.33,4.18,4.18,0,0,0,1.73-1.06,5,5,0,0,0,1.12-1.92,9.33,9.33,0,0,0,.4-3,9.08,9.08,0,0,0-.4-2.91,4.71,4.71,0,0,0-1.12-1.88,4.07,4.07,0,0,0-1.73-1,8,8,0,0,0-2.27-.3H164.7V28.94h0.83Z"/><path class="cls-4" d="M185.45,13h4.38v7.48h6.71V13h4.41V32.48h-4.41V24.37h-6.71v8.11h-4.38V13Z"/><path class="cls-4" d="M214.66,27.86h-5.93l-1.19,4.62h-4.47L209.15,13h5.28l6.08,19.44h-4.65Zm-0.89-3.43-0.45-1.79q-0.42-1.46-.8-3.1t-0.78-3.16h-0.12l-0.73,3.17q-0.37,1.63-.79,3.09l-0.48,1.79h4.14Z"/><path class="cls-4" d="M223.88,27a9.44,9.44,0,0,0,2.31,1.46,6.06,6.06,0,0,0,2.49.57,3.38,3.38,0,0,0,2-.51,1.63,1.63,0,0,0,.67-1.37,1.5,1.5,0,0,0-.19-0.77,1.85,1.85,0,0,0-.57-0.58,5.36,5.36,0,0,0-.89-0.48l-1.15-.49-2.53-1.07a7.53,7.53,0,0,1-1.45-.78,6.35,6.35,0,0,1-1.25-1.12,5,5,0,0,1-.88-1.49,5.3,5.3,0,0,1-.33-1.92,5.15,5.15,0,0,1,.51-2.25,5.59,5.59,0,0,1,1.43-1.85,6.83,6.83,0,0,1,2.19-1.24,8.34,8.34,0,0,1,2.79-.45,9,9,0,0,1,3.35.66,8.5,8.5,0,0,1,2.91,1.91L233.09,18a8.52,8.52,0,0,0-1.91-1.15,5.4,5.4,0,0,0-2.12-.4,3.13,3.13,0,0,0-1.8.46,1.49,1.49,0,0,0-.67,1.3,1.28,1.28,0,0,0,.22.76,2.17,2.17,0,0,0,.63.57,6.35,6.35,0,0,0,.94.48l1.16,0.49,2.5,1a6.84,6.84,0,0,1,2.82,2,5.05,5.05,0,0,1,1,3.31A5.51,5.51,0,0,1,234,31a7.12,7.12,0,0,1-2.31,1.31,9.14,9.14,0,0,1-3.1.49,10.89,10.89,0,0,1-3.8-.7,9.92,9.92,0,0,1-3.38-2.1Z"/><path class="cls-4" d="M254.53,27.86h-5.93l-1.19,4.62h-4.47L249,13h5.28l6.08,19.44h-4.65Zm-0.89-3.43-0.45-1.79q-0.42-1.46-.8-3.1t-0.78-3.16h-0.12l-0.73,3.17q-0.37,1.63-.79,3.09l-0.48,1.79h4.14Z"/><path class="cls-4" d="M269.94,27a9.44,9.44,0,0,0,2.31,1.46,6.06,6.06,0,0,0,2.49.57,3.38,3.38,0,0,0,2-.51,1.63,1.63,0,0,0,.67-1.37,1.5,1.5,0,0,0-.19-0.77,1.85,1.85,0,0,0-.57-0.58,5.36,5.36,0,0,0-.89-0.48l-1.15-.49-2.53-1.07a7.53,7.53,0,0,1-1.45-.78,6.35,6.35,0,0,1-1.25-1.12,5,5,0,0,1-.88-1.49,5.3,5.3,0,0,1-.33-1.92,5.15,5.15,0,0,1,.51-2.25,5.59,5.59,0,0,1,1.43-1.85,6.83,6.83,0,0,1,2.19-1.24,8.34,8.34,0,0,1,2.79-.45,9,9,0,0,1,3.35.66,8.5,8.5,0,0,1,2.91,1.91L279.15,18a8.52,8.52,0,0,0-1.91-1.15,5.4,5.4,0,0,0-2.12-.4,3.13,3.13,0,0,0-1.8.46,1.49,1.49,0,0,0-.67,1.3,1.28,1.28,0,0,0,.22.76,2.17,2.17,0,0,0,.63.57,6.35,6.35,0,0,0,.94.48l1.16,0.49,2.5,1a6.84,6.84,0,0,1,2.82,2,5.05,5.05,0,0,1,1,3.31A5.51,5.51,0,0,1,280,31a7.12,7.12,0,0,1-2.31,1.31,9.14,9.14,0,0,1-3.1.49,10.89,10.89,0,0,1-3.8-.7,9.92,9.92,0,0,1-3.38-2.1Z"/><path class="cls-4" d="M288.45,16.74h-5.34V13H298.2v3.7h-5.34V32.48h-4.41V16.74Z"/><path class="cls-4" d="M308.31,32.84a9,9,0,0,1-3.59-.7,7.81,7.81,0,0,1-2.79-2,9.24,9.24,0,0,1-1.8-3.19,13.15,13.15,0,0,1-.64-4.26,13,13,0,0,1,.64-4.25,8.78,8.78,0,0,1,1.8-3.13,7.76,7.76,0,0,1,2.79-1.94,10,10,0,0,1,7.19,0,7.67,7.67,0,0,1,2.79,2,8.94,8.94,0,0,1,1.8,3.15,12.93,12.93,0,0,1,.64,4.22,13.16,13.16,0,0,1-.64,4.26,9.24,9.24,0,0,1-1.8,3.19,7.82,7.82,0,0,1-2.79,2A9,9,0,0,1,308.31,32.84Zm0-3.79a3.63,3.63,0,0,0,3.16-1.72,8.2,8.2,0,0,0,1.16-4.67,7.78,7.78,0,0,0-1.16-4.56,3.86,3.86,0,0,0-6.32,0A7.78,7.78,0,0,0,304,22.67a8.2,8.2,0,0,0,1.16,4.67A3.63,3.63,0,0,0,308.31,29.06Z"/><path class="cls-4" d="M331.33,32.48l-3.73-7h-2.41v7H320.8V13h7a13.54,13.54,0,0,1,2.91.3,6.61,6.61,0,0,1,2.37,1,5,5,0,0,1,1.61,1.86,6.29,6.29,0,0,1,.6,2.89,6.17,6.17,0,0,1-.94,3.53,5.72,5.72,0,0,1-2.52,2.07l4.41,7.78h-4.92ZM325.19,22h2.27a4.13,4.13,0,0,0,2.64-.73A2.61,2.61,0,0,0,331,19.1a2.16,2.16,0,0,0-.91-2,5,5,0,0,0-2.64-.57h-2.27V22Z"/><path class="cls-4" d="M342,25.57L336.1,13h4.71l1.73,4.47q0.42,1.1.79,2.13l0.79,2.16h0.12q0.42-1.13.82-2.16t0.82-2.13L347.64,13h4.59l-5.87,12.52v6.92H342V25.57Z"/><path class="cls-2" d="M5.49,43.71h9.2V70.78H27.85v7.7H5.49V43.71Z"/><path class="cls-2" d="M33.84,43.71H56.31v7.7H43v5.46H54.38v7.7H43v6.21h13.8v7.7h-23V43.71Z"/><path class="cls-2" d="M70.22,51.41H61v-7.7h27.6v7.7h-9.2V78.48h-9.2V51.41Z"/><path class="cls-2" d="M104.78,43.71H114v19q0,4.65,1.26,6.55a4.43,4.43,0,0,0,4,1.9,4.57,4.57,0,0,0,4-1.9q1.31-1.9,1.31-6.55v-19h8.88v18q0,8.93-3.48,13.19t-10.75,4.25q-7.33,0-10.89-4.25t-3.56-13.19v-18Z"/><path class="cls-2" d="M143.51,67.84a17.61,17.61,0,0,0,4,2.43,10.32,10.32,0,0,0,4.09.94,5.49,5.49,0,0,0,3-.64,2.08,2.08,0,0,0,.94-1.82,1.74,1.74,0,0,0-.32-1.07,3.32,3.32,0,0,0-.94-0.8,10.52,10.52,0,0,0-1.47-.72l-2-.78-4.33-1.82a12.82,12.82,0,0,1-2.67-1.42,10.41,10.41,0,0,1-2.25-2.09,9.61,9.61,0,0,1-1.52-2.76,10,10,0,0,1-.56-3.42,9.37,9.37,0,0,1,1-4.2,10.75,10.75,0,0,1,2.67-3.42,12.9,12.9,0,0,1,4.09-2.33,15.32,15.32,0,0,1,5.22-.86,17.61,17.61,0,0,1,6.07,1.12A14.93,14.93,0,0,1,164,47.72l-4.6,5.78a16.73,16.73,0,0,0-3.4-1.87,9.63,9.63,0,0,0-3.56-.64,5.14,5.14,0,0,0-2.67.59,1.94,1.94,0,0,0-1,1.77,2.07,2.07,0,0,0,1.36,1.9q1.36,0.67,3.77,1.58l4.23,1.66a11.43,11.43,0,0,1,5,3.58A9.48,9.48,0,0,1,165,68a10.31,10.31,0,0,1-3.56,7.78,13.17,13.17,0,0,1-4.25,2.43,17,17,0,0,1-5.78.91,20.93,20.93,0,0,1-6.82-1.2,18.15,18.15,0,0,1-6.34-3.77Z"/><path class="cls-2" d="M188.44,51.41h-9.2v-7.7h27.6v7.7h-9.2V78.48h-9.2V51.41Z"/><path class="cls-2" d="M212,43.71h22.47v7.7H221.18v5.46h11.34v7.7H221.18v6.21H235v7.7H212V43.71Z"/><path class="cls-2" d="M241.72,43.71h9.2V70.78h13.16v7.7H241.72V43.71Z"/><path class="cls-2" d="M270.07,43.71h9.2V70.78h13.16v7.7H270.07V43.71Z"/><path class="cls-2" d="M309.66,43.71h9.2V78.48h-9.2V43.71Z"/><path class="cls-2" d="M333.2,51.41H324v-7.7h27.6v7.7h-9.2V78.48h-9.2V51.41Z"/><line class="cls-5" x1="374.75" y1="11.07" x2="374.75" y2="79.97"/></svg>